<svg width="691" height="300" viewBox="0 0 691 300" fill="none" xmlns="http://www.w3.org/2000/svg">
<rect x="91.7255" y="42.6564" width="587.044" height="203.163" rx="101.581" fill="#CFF7D3"/>
<ellipse cx="515.411" cy="223.045" rx="80.3691" ry="51.6945" fill="#CFF7D3"/>
<ellipse cx="322.787" cy="63.6242" rx="86.921" ry="57.8399" fill="#CFF7D3"/>
<ellipse cx="574.814" cy="69.7697" rx="84.737" ry="63.9854" fill="#CFF7D3"/>
<ellipse cx="86.7535" cy="50.147" rx="86.7535" ry="50.147" transform="matrix(0.995791 -0.091658 0.133181 0.991092 297.344 200.599)" fill="#CFF7D3"/>
<ellipse cx="616.309" cy="117.126" rx="74.6909" ry="57.8399" fill="#CFF7D3"/>
<ellipse cx="148.945" cy="197.379" rx="86.921" ry="57.8399" fill="#CFF7D3"/>
<ellipse cx="252.027" cy="233.168" rx="86.921" ry="50.9715" fill="#CFF7D3"/>
<ellipse cx="112.692" cy="83.5063" rx="79.4956" ry="63.2624" fill="#CFF7D3"/>
<ellipse cx="221.015" cy="69.4068" rx="82.9899" ry="52.056" fill="#CFF7D3"/>
<ellipse cx="86.4842" cy="134.478" rx="86.4842" ry="56.3939" fill="#CFF7D3"/>
<ellipse cx="604.516" cy="193.763" rx="74.2541" ry="57.8399" fill="#CFF7D3"/>
<ellipse cx="468.674" cy="57.8399" rx="86.921" ry="57.8399" fill="#CFF7D3"/>
</svg>
