<svg width="17" height="19" viewBox="0 0 17 19" fill="none" xmlns="http://www.w3.org/2000/svg">
<path fill-rule="evenodd" clip-rule="evenodd" d="M8.50001 2.19002C7.03401 2.19002 5.8456 3.37843 5.8456 4.84443C5.8456 6.31042 7.03401 7.49884 8.50001 7.49884C9.966 7.49884 11.1544 6.31042 11.1544 4.84443C11.1544 3.37844 9.966 2.19002 8.50001 2.19002ZM4.07599 4.84443C4.07599 2.40111 6.05669 0.42041 8.50001 0.42041C10.9433 0.42041 12.924 2.40111 12.924 4.84443C12.924 7.28775 10.9433 9.26844 8.50001 9.26844C6.05669 9.26844 4.07599 7.28775 4.07599 4.84443ZM1.83254 12.3338C2.6622 11.5042 3.78747 11.0381 4.96079 11.0381H12.0393C13.2126 11.0381 14.3378 11.5042 15.1674 12.3338C15.9972 13.1634 16.4632 14.2888 16.4632 15.4621V17.2317C16.4632 17.7203 16.0672 18.1165 15.5784 18.1165C15.0898 18.1165 14.6937 17.7203 14.6937 17.2317V15.4621C14.6937 14.7581 14.4139 14.0829 13.9161 13.5851C13.4183 13.0873 12.7433 12.8077 12.0393 12.8077H4.96079C4.25681 12.8077 3.58164 13.0873 3.08384 13.5851C2.58605 14.0829 2.30638 14.7581 2.30638 15.4621V17.2317C2.30638 17.7203 1.91024 18.1165 1.42158 18.1165C0.932914 18.1165 0.536774 17.7203 0.536774 17.2317V15.4621C0.536774 14.2888 1.00287 13.1634 1.83254 12.3338Z" fill="#009951"/>
</svg>
